<svg viewBox="0 0 211 45" xmlns="http://www.w3.org/2000/svg"><path d="m192.687 47.161-.326.646c-.473.841-1.239 1.262-2.298 1.262l-.737-.043.014-1.432c.114.019.314.028.603.028.51 0 .87-.215 1.078-.646l.368-.864-3.531-7.517h1.957l2.404 5.397 2.071-5.397h1.992l-3.595 8.566Zm-6.704-1.255c0 .969-.311 1.714-.932 2.234-.622.52-1.512.78-2.67.78h-3.765V38.595h3.538c1.168 0 2.056.234 2.666.702.61.468.915 1.166.915 2.092 0 .473-.128.898-.383 1.277-.255.378-.629.671-1.12.879.557.151.989.436 1.294.854.305.419.457.921.457 1.507Zm-2.471-5.524c-.291-.227-.744-.34-1.358-.34h-1.744v2.9h1.758c.558 0 .994-.126 1.308-.379.315-.253.472-.611.472-1.074 0-.511-.145-.88-.436-1.107Zm-.961 3.879h-2.141v3.212h1.992c.563 0 1.002-.138 1.319-.416.317-.278.475-.664.475-1.158 0-1.068-.548-1.614-1.645-1.638Zm-9.235 4.659h-1.78v-8.878h-3.191v-1.447h8.19v1.447h-3.219v8.878Zm-12.373-2.185c.399.587.984.88 1.755.88.704 0 1.233-.158 1.588-.475.354-.317.579-.844.674-1.581h1.787c-.105 1.101-.511 1.96-1.22 2.577s-1.652.926-2.829.926c-.823 0-1.548-.195-2.174-.585-.626-.39-1.11-.944-1.45-1.663-.34-.719-.518-1.553-.532-2.503v-.965c0-.973.173-1.831.518-2.574.345-.742.84-1.314 1.485-1.716.646-.401 1.391-.602 2.238-.602 1.139 0 2.056.308 2.751.925.695.617 1.099 1.49 1.213 2.62h-1.787c-.086-.742-.302-1.277-.649-1.606-.348-.329-.857-.493-1.528-.493-.78 0-1.38.285-1.798.855-.418.571-.632 1.407-.642 2.509v.916c0 1.117.2 1.968.6 2.555Zm-5.942 4.724V48.92h-6.8v2.539h-1.731l-.056-3.986h.829c.412-.396.74-.973.986-1.731.246-.757.404-1.615.475-2.573l.269-4.574h6.51v8.878h1.312l-.092 3.986h-1.702Zm-1.305-11.417h-3.014l-.17 2.902c-.127 1.939-.541 3.449-1.241 4.529h4.425v-7.431Zm-15.426-1.447h6.701v1.447h-4.907v2.851h4.241v1.418h-4.241v3.162h4.957v1.447h-6.751V38.595Zm-8.132 8.14c.399.587.984.88 1.755.88.704 0 1.233-.158 1.588-.475.355-.317.579-.844.674-1.581h1.787c-.104 1.101-.511 1.96-1.22 2.577s-1.652.926-2.829.926c-.823 0-1.548-.195-2.174-.585-.626-.39-1.11-.944-1.45-1.663-.34-.719-.518-1.553-.532-2.503v-.965c0-.973.173-1.831.518-2.574.345-.742.84-1.314 1.485-1.716.646-.401 1.391-.602 2.238-.602 1.139 0 2.056.308 2.751.925.695.617 1.099 1.49 1.213 2.62h-1.787c-.085-.742-.302-1.277-.649-1.606-.348-.329-.857-.493-1.528-.493-.78 0-1.38.285-1.798.855-.418.571-.632 1.407-.642 2.509v.916c0 1.117.2 1.968.6 2.555Zm-6.612 1.713c-.65.409-1.398.614-2.245.614-.836 0-1.582-.205-2.237-.614-.655-.408-1.16-.991-1.517-1.748-.357-.756-.538-1.628-.543-2.616v-.582c0-1.007.179-1.895.536-2.666.357-.77.86-1.36 1.51-1.769.65-.409 1.396-.613 2.237-.613.842 0 1.587.202 2.238.606.649.404 1.152.985 1.506 1.744.355.759.535 1.642.539 2.649v.574c0 1.012-.175 1.899-.524 2.663-.35.763-.85 1.35-1.5 1.758Zm.23-4.96c0-1.144-.216-2.021-.649-2.631-.432-.609-1.045-.914-1.84-.914-.775 0-1.381.303-1.819.911-.437.607-.66 1.467-.67 2.577v.596c0 1.135.221 2.012.663 2.631.442.619 1.056.929 1.84.929.795 0 1.406-.303 1.834-.908.427-.605.641-1.489.641-2.652v-.539Zm-14.578 3.247c.399.587.984.88 1.755.88.704 0 1.234-.158 1.588-.475.355-.317.579-.844.674-1.581h1.787c-.104 1.101-.511 1.96-1.22 2.577s-1.652.926-2.829.926c-.823 0-1.547-.195-2.174-.585-.626-.39-1.109-.944-1.45-1.663-.34-.719-.517-1.553-.532-2.503v-.965c0-.973.173-1.831.518-2.574.345-.742.84-1.314 1.486-1.716.645-.401 1.391-.602 2.237-.602 1.139 0 2.056.308 2.751.925.695.617 1.099 1.49 1.213 2.62h-1.787c-.085-.742-.302-1.277-.649-1.606-.347-.329-.857-.493-1.528-.493-.78 0-1.379.285-1.798.855-.418.571-.632 1.407-.641 2.509v.916c0 1.117.199 1.968.599 2.555Zm-10.955 1.713c-.65.409-1.398.614-2.244.614-.837 0-1.582-.205-2.237-.614-.655-.408-1.161-.991-1.518-1.748-.357-.756-.537-1.628-.542-2.616v-.582c0-1.007.178-1.895.535-2.666.357-.77.861-1.36 1.511-1.769.65-.409 1.395-.613 2.237-.613.841 0 1.587.202 2.237.606.65.404 1.153.985 1.507 1.744.355.759.534 1.642.539 2.649v.574c0 1.012-.175 1.899-.525 2.663-.35.763-.85 1.35-1.5 1.758Zm.231-4.96c0-1.144-.216-2.021-.649-2.631-.432-.609-1.046-.914-1.84-.914-.775 0-1.382.303-1.819.911-.437.607-.661 1.467-.67 2.577v.596c0 1.135.221 2.012.663 2.631.442.619 1.055.929 1.84.929.794 0 1.405-.303 1.833-.908.428-.605.642-1.489.642-2.652v-.539Zm-11.122-3.446h-4.545v8.878H81V38.595h8.119V48.92h-1.787v-8.878Zm-15.428-1.447h1.787V48.92h-1.787V38.595Zm-4.68 10.325h-3.95V38.595h1.794v3.95h2.113c.756 0 1.416.13 1.978.39.563.26.991.629 1.284 1.106.293.478.439 1.031.439 1.66 0 .964-.327 1.739-.982 2.325-.654.587-1.547.885-2.676.894Zm1.375-4.463c-.331-.301-.789-.456-1.375-.465h-2.156v3.481h2.106c.605 0 1.076-.163 1.415-.489.337-.327.507-.76.507-1.301 0-.517-.166-.926-.497-1.226Zm-13.508 2.278c.4.587.985.88 1.755.88.705 0 1.234-.158 1.589-.475.354-.317.579-.844.673-1.581h1.787c-.104 1.101-.51 1.96-1.219 2.577-.709.617-1.652.926-2.83.926-.822 0-1.547-.195-2.173-.585-.626-.39-1.11-.944-1.45-1.663-.34-.719-.518-1.553-.532-2.503v-.965c0-.973.173-1.831.518-2.574.345-.742.84-1.314 1.485-1.716.646-.401 1.391-.602 2.238-.602 1.139 0 2.056.308 2.751.925.695.617 1.099 1.49 1.212 2.62h-1.787c-.085-.742-.301-1.277-.648-1.606-.348-.329-.857-.493-1.528-.493-.78 0-1.38.285-1.798.855-.418.571-.632 1.407-.642 2.509v.916c0 1.117.2 1.968.599 2.555Zm-5.948 2.185-3.156-4.425h-1.219v4.425h-1.787V38.595h1.787v4.34h.985l3.035-4.34h2.198l-3.545 4.943 3.857 5.382h-2.155Zm-15.15-10.325h6.701v1.447h-4.907v2.851h4.241v1.418h-4.241v3.162h4.957v1.447h-6.751V38.595ZM30.119 48.92l-3.156-4.425h-1.219v4.425h-1.787V38.595h1.787v4.34h.985l3.035-4.34h2.198l-3.545 4.943 3.857 5.382h-2.155Z" style="fill:#343434;fill-rule:evenodd" transform="translate(-6.999 -7.334)"/><path d="M208.579 18.539c-.958 0-1.767-.713-1.767-1.589 0-.877.809-1.589 1.767-1.589h6.11c.959 0 1.738.712 1.738 1.589v5.643c0 .438-.18.849-.51 1.151-2.036 1.862-4.732 2.794-7.398 2.794-2.695 0-5.391-.932-7.428-2.794-1.976-1.808-3.055-4.219-3.055-6.794 0-2.548 1.079-4.959 3.055-6.767 1.977-1.835 4.613-2.822 7.428-2.822 2.786 0 5.422.987 7.428 2.822.33.301.48.685.48 1.096 0 .411-.15.822-.51 1.151a1.759 1.759 0 0 1-1.228.465c-.449 0-.898-.137-1.228-.465-1.317-1.206-3.085-1.863-4.942-1.863-1.887 0-3.624.657-4.942 1.863-1.317 1.205-2.066 2.821-2.066 4.52 0 1.698.749 3.314 2.066 4.52 1.348 1.26 3.145 1.89 4.942 1.89a7.407 7.407 0 0 0 4.433-1.452v-3.369h-4.373Zm-14.68 7.999c-.569 0-1.108-.247-1.437-.685l-9.046-11.835v10.931c0 .877-.808 1.589-1.767 1.589-.958 0-1.737-.712-1.737-1.589V8.95c0-.821.719-1.589 1.767-1.589.539 0 1.078.247 1.408.685l9.045 11.835V8.95c0-.876.779-1.589 1.767-1.589.959 0 1.738.713 1.738 1.589v15.999c0 .849-.779 1.589-1.738 1.589Zm-19.919 0c-.958 0-1.737-.712-1.737-1.589V8.95c0-.876.779-1.589 1.737-1.589.959 0 1.737.713 1.737 1.589v15.999c0 .877-.778 1.589-1.737 1.589Zm-4.136-1.589c0 .877-.779 1.589-1.737 1.589a1.78 1.78 0 0 1-1.288-.521l-7.428-7.451v6.383c0 .877-.809 1.589-1.767 1.589-.959 0-1.738-.712-1.738-1.589V8.95c0-.876.779-1.589 1.738-1.589.958 0 1.767.713 1.767 1.589v6.383l7.428-7.451a1.847 1.847 0 0 1 1.288-.521c.988 0 1.737.74 1.737 1.589 0 .411-.15.795-.45 1.096l-6.918 6.904 6.918 6.903c.3.302.45.712.45 1.096Zm-26.422 1.589c-5.541 0-10.034-4.301-10.034-9.588 0-5.288 4.493-9.589 10.034-9.589s10.064 4.301 10.064 9.589c0 5.287-4.523 9.588-10.064 9.588Zm0-15.971c-3.594 0-6.529 2.849-6.529 6.383s2.935 6.383 6.529 6.383c3.624 0 6.559-2.849 6.559-6.383s-2.935-6.383-6.559-6.383Zm-22.498 15.971c-5.541 0-10.034-4.301-10.034-9.588 0-5.288 4.493-9.589 10.034-9.589s10.064 4.301 10.064 9.589c0 5.287-4.523 9.588-10.064 9.588Zm0-15.971c-3.594 0-6.529 2.849-6.529 6.383s2.935 6.383 6.529 6.383c3.624 0 6.559-2.849 6.559-6.383s-2.935-6.383-6.559-6.383Zm-18.573 15.971h-6.11c-.959 0-1.737-.712-1.737-1.589V8.95c0-.876.778-1.589 1.737-1.589h4.822c.15 0 1.438.055 2.726.631 1.916.876 2.935 2.465 2.935 4.574 0 1.151-.33 2.192-.929 3.014 1.737 1.041 2.696 2.794 2.696 4.958 0 3.699-3.325 6-6.14 6Zm-1.048-15.971h-3.295v3.999h2.606c.449 0 2.635-.082 2.635-2 0-1.835-1.377-1.999-1.946-1.999Zm.838 7.177h-4.133v5.589h4.133c.03 0 .839-.028 1.558-.384 1.168-.603 1.288-1.671 1.288-2.411 0-1.013-.689-2.794-2.846-2.794Zm-20.102 8.794c-5.541 0-10.033-4.301-10.033-9.588 0-5.288 4.492-9.589 10.033-9.589 5.541 0 10.064 4.301 10.064 9.589 0 5.287-4.523 9.588-10.064 9.588Zm0-15.971c-3.594 0-6.529 2.849-6.529 6.383s2.935 6.383 6.529 6.383c3.624 0 6.56-2.849 6.56-6.383s-2.936-6.383-6.56-6.383ZM62.628 26.483h-.24c-2.546-.082-4.762-1.397-5.81-3.452a1.417 1.417 0 0 1-.15-.685c0-.602.359-1.178 1.018-1.451.24-.11.479-.137.719-.137.659 0 1.318.328 1.617.931.48.959 1.498 1.561 2.726 1.589h.15c1.048 0 1.917-.301 2.546-.877.599-.548.928-1.233.928-1.972v-.11c-.09-1.26-2.695-2.383-3.834-2.684l-.119-.055c-3.085-1.014-4.643-2.795-4.643-5.26v-.219c.06-1.397.749-2.658 2.037-3.534 1.078-.767 2.546-1.233 4.103-1.233h.27c1.258.027 2.546.493 3.594 1.205.449.329.689.795.689 1.261 0 .328-.12.684-.36.958a1.85 1.85 0 0 1-1.407.631c-.36 0-.719-.083-1.049-.302a3.052 3.052 0 0 0-1.587-.548h-.18c-1.467 0-2.606.685-2.636 1.671v.11c0 1.342 1.139 1.835 2.307 2.274.898.246 6.11 1.78 6.29 5.561v.274c0 1.589-.689 3.095-1.887 4.191-1.318 1.206-3.115 1.863-5.092 1.863Zm-8.599-1.534c0 .877-.779 1.589-1.737 1.589a1.78 1.78 0 0 1-1.288-.521l-7.428-7.451v6.383c0 .877-.809 1.589-1.768 1.589-.958 0-1.737-.712-1.737-1.589V8.95c0-.876.779-1.589 1.737-1.589.959 0 1.768.713 1.768 1.589v6.383l7.428-7.451a1.847 1.847 0 0 1 1.288-.521c.988 0 1.737.74 1.737 1.589 0 .411-.15.795-.45 1.096l-6.918 6.904 6.918 6.903c.3.302.45.712.45 1.096Zm-18.723-1.616c.988 0 1.767.712 1.767 1.616 0 .877-.779 1.589-1.767 1.589h-9.585c-.988 0-1.767-.712-1.767-1.589V8.95c0-.876.779-1.589 1.767-1.589h9.585c.988 0 1.767.713 1.767 1.589 0 .904-.779 1.617-1.767 1.617h-7.847v4.794h6.11c.958 0 1.737.712 1.737 1.589 0 .876-.779 1.589-1.737 1.589h-6.11v4.794h7.847Zm-14.35 1.616c0 .877-.779 1.589-1.737 1.589-.479 0-.929-.164-1.288-.521l-7.428-7.451v6.383c0 .877-.809 1.589-1.767 1.589-.959 0-1.737-.712-1.737-1.589V8.95c0-.876.778-1.589 1.737-1.589.958 0 1.767.713 1.767 1.589v6.383l7.428-7.451a1.849 1.849 0 0 1 1.288-.521c.988 0 1.737.74 1.737 1.589 0 .411-.15.795-.449 1.096l-6.919 6.904 6.919 6.903c.299.302.449.712.449 1.096Z" style="stroke:#343434;stroke-linejoin:round;stroke-opacity:.5;stroke-width:1px;fill:#343434;fill-rule:evenodd" transform="translate(-6.999 -7.334)"/></svg>