<svg viewBox="0 0 39 43" style="fill:#ff5635" xmlns="http://www.w3.org/2000/svg"><path d="M33.684 28.274a4.949 4.949 0 0 1-3.91-1.91l-1.044-1.331-.987 1.375a4.991 4.991 0 0 1-4.051 2.08 4.947 4.947 0 0 1-2.862-.912l-1.145-.81-.693 1.219a6.353 6.353 0 0 1-5.521 3.214 6.33 6.33 0 0 1-5.275-2.838l-.557-.837-.943.35a4.98 4.98 0 0 1-6.705-4.672 4.947 4.947 0 0 1 3.164-4.627l.824-.322-.023-1.014c.003-2.011 1.109-3.835 2.894-5.175a6.754 6.754 0 0 1 .927-4.654c-1.621-1.5-3.203-3.506-3.528-5.806a1.41 1.41 0 1 1 2.793-.394c.205 1.454 1.371 2.933 2.693 4.153a6.753 6.753 0 0 1 3.828-1.179c3.051.004 5.636 2.03 6.486 4.806a13.08 13.08 0 0 1 3.783-.547c5.774.007 10.466 3.643 10.46 8.105a6.478 6.478 0 0 1-.037.646l-.109 1.041 1 .306a4.946 4.946 0 0 1 3.52 4.764 4.982 4.982 0 0 1-4.982 4.969ZM13.56 6.159a4.784 4.784 0 0 0-2.201.534c.48.352.939.655 1.337.894a1.41 1.41 0 0 1-1.453 2.418 22.041 22.041 0 0 1-1.93-1.311 4.79 4.79 0 0 0-.576 2.276 4.823 4.823 0 0 0 4.811 4.824 4.824 4.824 0 0 0 4.823-4.812 4.823 4.823 0 0 0-4.811-4.823ZM11.3 32.824s.407 3.931.513 5.818c.041.723.505 1.047.789 1.12.264.069.765.065.996-.044.322-.153.633-.278.653-1.163.037-1.651-.389-5.466-.389-5.466a8.761 8.761 0 0 0 2.035-.327s.142 5.676.263 6.455c.124.791.701.98 1.227.981.55 0 1.174-.301 1.164-1.183l-.082-7.455a8.886 8.886 0 0 0 2.025-1.892c.047.023.096.042.143.064 0 0-.133 8.667-.098 9.328.047.883.631 1.221 1.279 1.222.656.001 1.259-.453 1.348-1.162.082-.657.249-8.74.249-8.74.093.004.187.009.281.009a7.49 7.49 0 0 0 1.951-.259s-.515 7.681-.427 8.258c.123.809.628 1.165 1.306 1.165.645.001 1.204-.487 1.326-1.35.076-.539.87-9.741.87-9.741.033-.028.066-.056.097-.085a7.45 7.45 0 0 0 4.062 1.75L31.243 40.6c-.216 1.38-1.535 2.507-2.931 2.505l-17.657-.023c-1.397-.002-2.714-1.132-2.925-2.513L6.105 29.997c.185-.028.369-.06.552-.102a8.855 8.855 0 0 0 4.643 2.929Z" class="cls-1"/></svg>