<svg xmlns="http://www.w3.org/2000/svg" preserveAspectRatio="xMidYMid" width="108.937" height="121.47"><path d="M94.897 79.677c-4.322-.006-8.336-1.967-11.012-5.381l-2.941-3.753-2.779 3.875a14.054 14.054 0 0 1-11.41 5.861 13.906 13.906 0 0 1-8.063-2.57l-3.223-2.283-1.952 3.436c-3.176 5.596-9.135 9.067-15.553 9.058a17.832 17.832 0 0 1-14.858-7.996l-1.568-2.361-2.655.988a13.964 13.964 0 0 1-4.894.873c-7.725-.01-14.003-6.309-13.993-14.04C.003 59.58 3.5 54.462 8.907 52.346l2.323-.909-.066-2.857c.008-5.668 3.122-10.808 8.153-14.582a19.209 19.209 0 0 1-.249-3.092 19.034 19.034 0 0 1 2.857-10.024c-4.564-4.227-9.021-9.88-9.935-16.362a3.973 3.973 0 0 1 3.951-4.531 3.97 3.97 0 0 1 3.917 3.422c.576 4.096 3.86 8.263 7.585 11.701a19.017 19.017 0 0 1 10.78-3.321c8.594.012 15.875 5.721 18.27 13.544a36.829 36.829 0 0 1 10.655-1.543c16.263.022 29.479 10.268 29.462 22.842a17.886 17.886 0 0 1-.104 1.821l-.307 2.932 2.817.862c5.937 1.814 9.922 7.209 9.914 13.426-.01 7.732-6.306 14.012-14.033 14.002ZM38.216 17.356a13.476 13.476 0 0 0-6.2 1.505 50.397 50.397 0 0 0 3.766 2.519 3.976 3.976 0 0 1-4.094 6.815 62.21 62.21 0 0 1-5.434-3.694 13.503 13.503 0 0 0-1.624 6.412c-.01 7.487 6.069 13.584 13.55 13.594 7.481.01 13.576-6.071 13.586-13.558.009-7.484-6.069-13.583-13.55-13.593ZM31.851 92.5s1.146 11.077 1.444 16.394c.114 2.038 1.422 2.951 2.223 3.158.744.192 2.153.182 2.805-.126.907-.43 1.783-.782 1.838-3.277.104-4.651-1.095-15.402-1.095-15.402a24.848 24.848 0 0 0 5.732-.922s.399 15.995.742 18.191c.347 2.227 1.972 2.761 3.454 2.762 1.549 0 3.308-.846 3.281-3.334l-.232-21.006a25.074 25.074 0 0 0 5.702-5.331c.133.063.271.118.404.178 0 0-.375 24.425-.276 26.287.133 2.489 1.778 3.442 3.603 3.445 1.849.002 3.547-1.278 3.796-3.276.231-1.85.701-24.628.701-24.628.263.011.527.024.791.024a21.01 21.01 0 0 0 5.497-.73s-1.451 21.646-1.203 23.271c.346 2.28 1.768 3.282 3.679 3.285 1.817.002 3.391-1.374 3.733-3.805.214-1.521 2.453-27.451 2.453-27.451.091-.08.184-.157.272-.24a20.986 20.986 0 0 0 11.441 4.931l-4.613 29.515c-.607 3.888-4.323 7.065-8.256 7.059l-49.735-.065c-3.934-.005-7.642-3.191-8.239-7.081l-4.576-29.793a21.17 21.17 0 0 0 1.556-.288A24.943 24.943 0 0 0 31.851 92.5Z" style="fill:#fff;fill-rule:evenodd"/></svg>