<svg viewBox="0 0 29 274" xmlns="http://www.w3.org/2000/svg"><path d="M14.114 133.228C6.319 133.228 0 126.909 0 119.114 0 111.319 6.319 105 14.114 105c7.795 0 14.114 6.319 14.114 14.114 0 7.795-6.319 14.114-14.114 14.114Zm4.686-13.792c-.453-.491-1.059-.814-1.813-.974v-.064a2.64 2.64 0 0 0 1.233-1.029c.3-.465.449-.995.449-1.592 0-.516-.109-.971-.325-1.366a2.373 2.373 0 0 0-.982-.945 3.87 3.87 0 0 0-1.301-.428c-.462-.071-1.143-.104-2.04-.104H9.7v12.229h4.895c.85 0 1.547-.076 2.097-.23a4.309 4.309 0 0 0 1.517-.771c.39-.303.698-.681.928-1.14.23-.461.345-.996.345-1.605 0-.83-.227-1.49-.682-1.981Zm-3.285 3.246c-.317.137-.631.21-.936.221-.306.012-.859.017-1.657.017h-.166v-3.062h.567c.546 0 .984.003 1.309.012.325.008.583.047.768.121.306.108.535.268.69.484.154.213.229.508.229.886 0 .294-.064.559-.193.791a1.22 1.22 0 0 1-.611.53Zm-.614-5.105a1.81 1.81 0 0 1-.653.171c-.211.011-.581.016-1.105.016h-.387v-2.587h.213c.547 0 .959.003 1.237.011.277.008.516.056.717.146a.908.908 0 0 1 .474.451c.101.207.152.41.152.608 0 .267-.048.503-.141.707-.092.202-.263.361-.507.477Zm-.787-54.349C6.319 63.228 0 56.909 0 49.114 0 41.319 6.319 35 14.114 35c7.795 0 14.114 6.319 14.114 14.114 0 7.795-6.319 14.114-14.114 14.114Zm7.21-19.634c0-.867-.702-1.569-1.569-1.569H8.667c-.867 0-1.569.702-1.569 1.569l-.001 11.073c0 .867.703 1.569 1.569 1.569h11.089c.867 0 1.569-.702 1.569-1.569V43.594Zm-2.088 2.807h-1.677a.55.55 0 0 1-.55-.55v-1.677a.55.55 0 0 1 .55-.55h1.677a.55.55 0 0 1 .55.55v1.677a.55.55 0 0 1-.55.55Zm-5.003 5.312a2.552 2.552 0 0 1 0-5.106c1.411 0 2.758 1.029 2.758 2.552 0 1.524-1.347 2.554-2.758 2.554Zm0 1.877a4.427 4.427 0 0 0 4.285-5.539c.794.001 1.241-.001 1.241-.001v6.104a.55.55 0 0 1-.55.55H9.257a.55.55 0 0 1-.55-.55V48.05l1.241.001a4.427 4.427 0 0 0 4.285 5.539Zm-.118-25.362C6.32 28.228.001 21.909.001 14.114.001 6.319 6.32 0 14.115 0c7.794 0 14.113 6.319 14.113 14.114 0 7.795-6.319 14.114-14.113 14.114Zm7.777-19.801a6.548 6.548 0 0 1-2.08.795 3.276 3.276 0 0 0-5.583 2.988 9.303 9.303 0 0 1-6.752-3.423 3.277 3.277 0 0 0 1.014 4.374 3.266 3.266 0 0 1-1.484-.41v.041a3.28 3.28 0 0 0 2.627 3.213 3.31 3.31 0 0 1-1.479.055 3.278 3.278 0 0 0 3.06 2.275 6.569 6.569 0 0 1-4.85 1.357 9.27 9.27 0 0 0 5.022 1.472c6.026 0 9.321-4.992 9.321-9.321a8.54 8.54 0 0 0-.01-.424 6.654 6.654 0 0 0 1.635-1.695 6.558 6.558 0 0 1-1.881.515 3.286 3.286 0 0 0 1.44-1.812Zm-7.777 89.801C6.32 98.228.001 91.909.001 84.114.001 76.319 6.32 70 14.115 70c7.795 0 14.114 6.319 14.114 14.114 0 7.795-6.319 14.114-14.114 14.114Zm3.516-22.769H15.12c-2.963 0-3.672 1.39-3.672 3.905v1.978H9.749v2.778h1.699v8.357h3.363V84.12h2.466l.257-2.778h-2.723l.004-1.67c0-.804.076-1.129 1.23-1.129h1.586v-3.084Z" class="cls-1" style="fill:#484846;fill-rule:evenodd"/><path d="M14.115 273.228c-7.795 0-14.114-6.319-14.114-14.114C.001 251.319 6.32 245 14.115 245c7.795 0 14.114 6.319 14.114 14.114 0 7.795-6.319 14.114-14.114 14.114Zm4.686-13.792c-.453-.491-1.059-.814-1.813-.974v-.064a2.64 2.64 0 0 0 1.233-1.029c.3-.465.449-.995.449-1.592 0-.516-.109-.971-.325-1.366a2.373 2.373 0 0 0-.982-.945 3.87 3.87 0 0 0-1.301-.428c-.462-.071-1.143-.104-2.04-.104H9.701v12.229h4.895c.85 0 1.547-.076 2.097-.23a4.309 4.309 0 0 0 1.517-.771c.39-.303.698-.681.928-1.14.23-.461.345-.996.345-1.605 0-.83-.227-1.49-.682-1.981Zm-3.285 3.246c-.317.137-.631.21-.936.221-.306.012-.859.017-1.657.017h-.166v-3.062h.567c.546 0 .984.003 1.309.012.325.008.583.047.768.121.306.108.535.268.69.484.154.213.229.508.229.886 0 .294-.064.559-.193.791a1.22 1.22 0 0 1-.611.53Zm-.614-5.105a1.81 1.81 0 0 1-.653.171c-.211.011-.581.016-1.105.016h-.387v-2.587h.213c.547 0 .959.003 1.237.011.277.008.516.056.717.146a.908.908 0 0 1 .474.451c.101.207.152.41.152.608 0 .267-.048.503-.141.707-.092.202-.263.361-.507.477Zm-.787-54.349c-7.795 0-14.114-6.319-14.114-14.114C.001 181.319 6.32 175 14.115 175c7.795 0 14.114 6.319 14.114 14.114 0 7.795-6.319 14.114-14.114 14.114Zm7.21-19.634c0-.867-.702-1.569-1.569-1.569H8.668c-.867 0-1.569.702-1.569 1.569l-.001 11.073c0 .867.703 1.569 1.569 1.569h11.089c.867 0 1.569-.702 1.569-1.569v-11.073Zm-2.088 2.807H17.56a.55.55 0 0 1-.55-.55v-1.677a.55.55 0 0 1 .55-.55h1.677a.55.55 0 0 1 .55.55v1.677a.55.55 0 0 1-.55.55Zm-5.003 5.312a2.552 2.552 0 0 1 0-5.106c1.411 0 2.758 1.029 2.758 2.552 0 1.524-1.347 2.554-2.758 2.554Zm0 1.877a4.427 4.427 0 0 0 4.285-5.539c.794.001 1.241-.001 1.241-.001v6.104a.55.55 0 0 1-.55.55H9.258a.55.55 0 0 1-.55-.55v-6.104l1.241.001a4.427 4.427 0 0 0 4.285 5.539Zm-.118-25.362c-7.795 0-14.114-6.319-14.114-14.114C.002 146.319 6.321 140 14.116 140c7.794 0 14.113 6.319 14.113 14.114 0 7.795-6.319 14.114-14.113 14.114Zm7.777-19.801a6.548 6.548 0 0 1-2.08.795 3.276 3.276 0 0 0-5.583 2.988 9.303 9.303 0 0 1-6.752-3.423 3.277 3.277 0 0 0 1.014 4.374 3.266 3.266 0 0 1-1.484-.41v.041a3.28 3.28 0 0 0 2.627 3.213 3.31 3.31 0 0 1-1.479.055 3.278 3.278 0 0 0 3.06 2.275 6.569 6.569 0 0 1-4.85 1.357 9.27 9.27 0 0 0 5.022 1.472c6.026 0 9.321-4.992 9.321-9.321a8.54 8.54 0 0 0-.01-.424 6.654 6.654 0 0 0 1.635-1.695 6.558 6.558 0 0 1-1.881.515 3.286 3.286 0 0 0 1.44-1.812Zm-7.777 89.801c-7.795 0-14.114-6.319-14.114-14.114C.002 216.319 6.321 210 14.116 210c7.795 0 14.114 6.319 14.114 14.114 0 7.795-6.319 14.114-14.114 14.114Zm3.516-22.769h-2.511c-2.963 0-3.672 1.39-3.672 3.905v1.978H9.75v2.778h1.699v8.357h3.363v-8.357h2.466l.257-2.778h-2.723l.004-1.67c0-.804.076-1.129 1.23-1.129h1.586v-3.084Z" class="cls-1" style="fill-rule:evenodd;fill:#ff5635"/></svg>